<mxfile host="Electron" modified="2024-10-29T08:04:48.988Z" agent="Mozilla/5.0 (X11; Linux x86_64) AppleWebKit/537.36 (KHTML, like Gecko) draw.io/24.4.0 Chrome/122.0.6261.156 Electron/29.4.4 Safari/537.36" etag="zv0PcBsFgf2mZRR85Dxj" version="24.3.1" type="device">
  <diagram name="Page-1" id="hpA2jhbhe-orym-DIbPR">
    <mxGraphModel dx="989" dy="626" grid="1" gridSize="10" guides="0" tooltips="1" connect="1" arrows="1" fold="1" page="1" pageScale="1" pageWidth="850" pageHeight="1100" math="0" shadow="0">
      <root>
        <mxCell id="0" />
        <mxCell id="1" parent="0" />
        <mxCell id="a65lAm7me5gKPuGQS8Rp-214" value="" style="rounded=1;whiteSpace=wrap;html=1;fillColor=#e1d5e7;strokeColor=none;" vertex="1" parent="1">
          <mxGeometry x="515" y="440" width="225" height="4" as="geometry" />
        </mxCell>
        <mxCell id="a65lAm7me5gKPuGQS8Rp-215" value="" style="ellipse;whiteSpace=wrap;html=1;aspect=fixed;fillColor=#e1d5e7;strokeColor=#9673a6;fontStyle=1" vertex="1" parent="1">
          <mxGeometry x="510" y="437" width="10" height="10" as="geometry" />
        </mxCell>
        <mxCell id="a65lAm7me5gKPuGQS8Rp-216" value="&lt;span style=&quot;color: rgb(51, 51, 51);&quot;&gt;Base Addr for S IntFiles&lt;/span&gt;" style="text;html=1;align=center;verticalAlign=middle;whiteSpace=wrap;rounded=1;fontFamily=mono;fillColor=#e1d5e7;strokeColor=none;" vertex="1" parent="1">
          <mxGeometry x="550" y="442" width="190" height="16" as="geometry" />
        </mxCell>
        <mxCell id="a65lAm7me5gKPuGQS8Rp-212" value="" style="rounded=1;whiteSpace=wrap;html=1;fillColor=#e1d5e7;strokeColor=none;" vertex="1" parent="1">
          <mxGeometry x="266" y="440" width="214" height="4" as="geometry" />
        </mxCell>
        <mxCell id="a65lAm7me5gKPuGQS8Rp-134" value="" style="rounded=0;whiteSpace=wrap;html=1;fillColor=#d5e8d4;strokeColor=none;" vertex="1" parent="1">
          <mxGeometry x="304" y="360" width="8" height="80" as="geometry" />
        </mxCell>
        <mxCell id="a65lAm7me5gKPuGQS8Rp-133" value="" style="rounded=0;whiteSpace=wrap;html=1;fillColor=#dae8fc;strokeColor=none;" vertex="1" parent="1">
          <mxGeometry x="296" y="360" width="8" height="80" as="geometry" />
        </mxCell>
        <mxCell id="a65lAm7me5gKPuGQS8Rp-208" value="" style="verticalLabelPosition=bottom;verticalAlign=top;html=1;shape=mxgraph.basic.polygon;polyCoords=[[0.53,0],[1,0],[1,0],[0,0.33],[0,1],[0,1],[0,0.75],[0,0.25]];polyline=0;fillColor=#ffe6cc;strokeColor=none;" vertex="1" parent="1">
          <mxGeometry x="312" y="330" width="128" height="30" as="geometry" />
        </mxCell>
        <mxCell id="a65lAm7me5gKPuGQS8Rp-207" value="" style="verticalLabelPosition=bottom;verticalAlign=top;html=1;shape=mxgraph.basic.polygon;polyCoords=[[0.21,0],[1,0],[1,0],[0.11,0.34],[0.11,1],[0,1],[0,0.75],[0,0.25]];polyline=0;fillColor=#d5e8d4;strokeColor=none;" vertex="1" parent="1">
          <mxGeometry x="304" y="330" width="76" height="30" as="geometry" />
        </mxCell>
        <mxCell id="a65lAm7me5gKPuGQS8Rp-204" value="" style="verticalLabelPosition=bottom;verticalAlign=top;html=1;shape=mxgraph.basic.polygon;polyCoords=[[0,0],[1,0],[0.74,0.34],[0.74,0.67],[0.74,1],[0.6,1],[0.6,0.67],[0.6,0.34]];polyline=0;fillColor=#dae8fc;strokeColor=none;" vertex="1" parent="1">
          <mxGeometry x="260" y="330" width="60" height="30" as="geometry" />
        </mxCell>
        <mxCell id="a65lAm7me5gKPuGQS8Rp-132" value="" style="verticalLabelPosition=bottom;verticalAlign=top;html=1;shape=mxgraph.basic.polygon;polyCoords=[[0,0],[1,0],[0.83,0.25],[0.8,0.74],[0.8,1],[0.67,1],[0.67,0.75],[0.66,0.25]];polyline=0;fillColor=#dae8fc;strokeColor=none;" vertex="1" parent="1">
          <mxGeometry x="500" y="100" width="60" height="40" as="geometry" />
        </mxCell>
        <mxCell id="a65lAm7me5gKPuGQS8Rp-131" value="" style="rounded=0;whiteSpace=wrap;html=1;fillColor=#dae8fc;strokeColor=none;" vertex="1" parent="1">
          <mxGeometry x="540" y="140" width="8" height="300" as="geometry" />
        </mxCell>
        <mxCell id="a65lAm7me5gKPuGQS8Rp-130" value="" style="rounded=0;whiteSpace=wrap;html=1;fillColor=#d5e8d4;strokeColor=none;" vertex="1" parent="1">
          <mxGeometry x="548" y="140" width="8" height="300" as="geometry" />
        </mxCell>
        <mxCell id="a65lAm7me5gKPuGQS8Rp-129" value="" style="verticalLabelPosition=bottom;verticalAlign=top;html=1;shape=mxgraph.basic.polygon;polyCoords=[[0.17,0],[1,0],[0.12,0.25],[0.12,0.51],[0.12,1],[0,1],[0,0.75],[0,0.25]];polyline=0;fillColor=#d5e8d4;strokeColor=none;" vertex="1" parent="1">
          <mxGeometry x="548" y="100" width="72" height="40" as="geometry" />
        </mxCell>
        <mxCell id="a65lAm7me5gKPuGQS8Rp-128" value="" style="rounded=0;whiteSpace=wrap;html=1;fillColor=#ffe6cc;strokeColor=none;" vertex="1" parent="1">
          <mxGeometry x="556" y="140" width="16" height="300" as="geometry" />
        </mxCell>
        <mxCell id="zODUXzM1xvp972N7hvd0-1" value="IMSIC00: VS IntFile 0" style="rounded=0;whiteSpace=wrap;html=1;fillColor=#f5f5f5;strokeColor=#666666;align=left;fontFamily=mono;fontColor=#333333;" parent="1" vertex="1">
          <mxGeometry x="580" y="400" width="160" height="20" as="geometry" />
        </mxCell>
        <mxCell id="a65lAm7me5gKPuGQS8Rp-1" value="IMSIC00: S IntFile" style="rounded=0;whiteSpace=wrap;html=1;fillColor=#f5f5f5;strokeColor=#666666;align=left;fontFamily=mono;fontColor=#333333;" vertex="1" parent="1">
          <mxGeometry x="580" y="420" width="160" height="20" as="geometry" />
        </mxCell>
        <mxCell id="a65lAm7me5gKPuGQS8Rp-2" value="IMSIC00: VS IntFile 1" style="rounded=0;whiteSpace=wrap;html=1;fillColor=#f5f5f5;strokeColor=#666666;align=left;fontFamily=mono;fontColor=#333333;" vertex="1" parent="1">
          <mxGeometry x="580" y="380" width="160" height="20" as="geometry" />
        </mxCell>
        <mxCell id="a65lAm7me5gKPuGQS8Rp-3" value="" style="rounded=0;whiteSpace=wrap;html=1;fillColor=#f5f5f5;strokeColor=#666666;align=left;fontFamily=mono;fontColor=#333333;" vertex="1" parent="1">
          <mxGeometry x="580" y="360" width="160" height="20" as="geometry" />
        </mxCell>
        <mxCell id="a65lAm7me5gKPuGQS8Rp-4" value="IMSIC01: VS IntFile 0" style="rounded=0;whiteSpace=wrap;html=1;fillColor=#f5f5f5;strokeColor=#666666;align=left;fontFamily=mono;fontColor=#333333;" vertex="1" parent="1">
          <mxGeometry x="580" y="320" width="160" height="20" as="geometry" />
        </mxCell>
        <mxCell id="a65lAm7me5gKPuGQS8Rp-5" value="IMSIC01: S IntFile" style="rounded=0;whiteSpace=wrap;html=1;fillColor=#f5f5f5;strokeColor=#666666;align=left;fontFamily=mono;fontColor=#333333;" vertex="1" parent="1">
          <mxGeometry x="580" y="340" width="160" height="20" as="geometry" />
        </mxCell>
        <mxCell id="a65lAm7me5gKPuGQS8Rp-6" value="IMSIC01: VS IntFile 1" style="rounded=0;whiteSpace=wrap;html=1;fillColor=#f5f5f5;strokeColor=#666666;align=left;fontFamily=mono;fontColor=#333333;" vertex="1" parent="1">
          <mxGeometry x="580" y="300" width="160" height="20" as="geometry" />
        </mxCell>
        <mxCell id="a65lAm7me5gKPuGQS8Rp-7" value="" style="rounded=0;whiteSpace=wrap;html=1;fillColor=#f5f5f5;strokeColor=#666666;align=left;fontFamily=mono;fontColor=#333333;" vertex="1" parent="1">
          <mxGeometry x="580" y="280" width="160" height="20" as="geometry" />
        </mxCell>
        <mxCell id="a65lAm7me5gKPuGQS8Rp-8" value="IMSIC10: VS IntFile 0" style="rounded=0;whiteSpace=wrap;html=1;fillColor=#f5f5f5;strokeColor=#666666;align=left;fontFamily=mono;fontColor=#333333;" vertex="1" parent="1">
          <mxGeometry x="580" y="240" width="160" height="20" as="geometry" />
        </mxCell>
        <mxCell id="a65lAm7me5gKPuGQS8Rp-9" value="IMSIC10: S IntFile" style="rounded=0;whiteSpace=wrap;html=1;fillColor=#f5f5f5;strokeColor=#666666;align=left;fontFamily=mono;fontColor=#333333;" vertex="1" parent="1">
          <mxGeometry x="580" y="260" width="160" height="20" as="geometry" />
        </mxCell>
        <mxCell id="a65lAm7me5gKPuGQS8Rp-10" value="IMSIC10: VS IntFile 1" style="rounded=0;whiteSpace=wrap;html=1;fillColor=#f5f5f5;strokeColor=#666666;align=left;fontFamily=mono;fontColor=#333333;" vertex="1" parent="1">
          <mxGeometry x="580" y="220" width="160" height="20" as="geometry" />
        </mxCell>
        <mxCell id="a65lAm7me5gKPuGQS8Rp-11" value="" style="rounded=0;whiteSpace=wrap;html=1;fillColor=#f5f5f5;strokeColor=#666666;align=left;fontFamily=mono;fontColor=#333333;" vertex="1" parent="1">
          <mxGeometry x="580" y="200" width="160" height="20" as="geometry" />
        </mxCell>
        <mxCell id="a65lAm7me5gKPuGQS8Rp-12" value="IMSIC11: VS IntFile 0" style="rounded=0;whiteSpace=wrap;html=1;fillColor=#f5f5f5;strokeColor=#666666;align=left;fontFamily=mono;fontColor=#333333;" vertex="1" parent="1">
          <mxGeometry x="580" y="160" width="160" height="20" as="geometry" />
        </mxCell>
        <mxCell id="a65lAm7me5gKPuGQS8Rp-13" value="IMSIC11: S IntFile" style="rounded=0;whiteSpace=wrap;html=1;fillColor=#f5f5f5;strokeColor=#666666;align=left;fontFamily=mono;fontColor=#333333;" vertex="1" parent="1">
          <mxGeometry x="580" y="180" width="160" height="20" as="geometry" />
        </mxCell>
        <mxCell id="a65lAm7me5gKPuGQS8Rp-14" value="IMSIC11: VS IntFile 1" style="rounded=0;whiteSpace=wrap;html=1;fillColor=#f5f5f5;strokeColor=#666666;align=left;fontFamily=mono;fontColor=#333333;" vertex="1" parent="1">
          <mxGeometry x="580" y="140" width="160" height="20" as="geometry" />
        </mxCell>
        <mxCell id="a65lAm7me5gKPuGQS8Rp-15" value="" style="rounded=0;whiteSpace=wrap;html=1;fillColor=#f5f5f5;strokeColor=#666666;align=left;fontFamily=mono;fontColor=#333333;" vertex="1" parent="1">
          <mxGeometry x="580" y="120" width="160" height="20" as="geometry" />
        </mxCell>
        <mxCell id="a65lAm7me5gKPuGQS8Rp-16" value="IMSIC00: M IntFile" style="rounded=0;whiteSpace=wrap;html=1;fillColor=#f5f5f5;strokeColor=#666666;fontFamily=mono;fontColor=#333333;" vertex="1" parent="1">
          <mxGeometry x="320" y="420" width="160" height="20" as="geometry" />
        </mxCell>
        <mxCell id="a65lAm7me5gKPuGQS8Rp-17" value="IMSIC01: M IntFile" style="rounded=0;whiteSpace=wrap;html=1;fillColor=#f5f5f5;strokeColor=#666666;fontFamily=mono;fontColor=#333333;" vertex="1" parent="1">
          <mxGeometry x="320" y="400" width="160" height="20" as="geometry" />
        </mxCell>
        <mxCell id="a65lAm7me5gKPuGQS8Rp-18" value="IMSIC10: M IntFile" style="rounded=0;whiteSpace=wrap;html=1;fillColor=#f5f5f5;strokeColor=#666666;fontFamily=mono;fontColor=#333333;" vertex="1" parent="1">
          <mxGeometry x="320" y="380" width="160" height="20" as="geometry" />
        </mxCell>
        <mxCell id="a65lAm7me5gKPuGQS8Rp-19" value="IMSIC11: M IntFile" style="rounded=0;whiteSpace=wrap;html=1;fillColor=#f5f5f5;strokeColor=#666666;fontFamily=mono;fontColor=#333333;" vertex="1" parent="1">
          <mxGeometry x="320" y="360" width="160" height="20" as="geometry" />
        </mxCell>
        <mxCell id="a65lAm7me5gKPuGQS8Rp-33" value="Memory region for supervisor level" style="text;html=1;align=center;verticalAlign=middle;whiteSpace=wrap;rounded=0;fontFamily=Helvetica;fontStyle=1" vertex="1" parent="1">
          <mxGeometry x="520" y="460" width="220" height="20" as="geometry" />
        </mxCell>
        <mxCell id="a65lAm7me5gKPuGQS8Rp-34" value="Memory region for machine level" style="text;html=1;align=center;verticalAlign=middle;whiteSpace=wrap;rounded=0;fontFamily=Helvetica;fontStyle=1" vertex="1" parent="1">
          <mxGeometry x="270" y="460" width="210" height="20" as="geometry" />
        </mxCell>
        <mxCell id="a65lAm7me5gKPuGQS8Rp-35" value="" style="rounded=1;whiteSpace=wrap;html=1;fillColor=none;fontFamily=mono;" vertex="1" parent="1">
          <mxGeometry x="260" y="80" width="180" height="60" as="geometry" />
        </mxCell>
        <mxCell id="a65lAm7me5gKPuGQS8Rp-36" value="&lt;b&gt;Legend&lt;/b&gt;" style="text;html=1;align=center;verticalAlign=middle;whiteSpace=wrap;rounded=0;fontFamily=mono;" vertex="1" parent="1">
          <mxGeometry x="320" y="80" width="60" height="30" as="geometry" />
        </mxCell>
        <mxCell id="a65lAm7me5gKPuGQS8Rp-37" value="A 4KB memory page" style="rounded=0;whiteSpace=wrap;html=1;fillColor=#f5f5f5;strokeColor=#666666;align=center;fontFamily=mono;fontColor=#333333;" vertex="1" parent="1">
          <mxGeometry x="270" y="110" width="160" height="20" as="geometry" />
        </mxCell>
        <mxCell id="a65lAm7me5gKPuGQS8Rp-58" value="GroupID" style="rounded=1;whiteSpace=wrap;html=1;fillColor=#dae8fc;strokeColor=#6c8ebf;align=center;fontFamily=mono;" vertex="1" parent="1">
          <mxGeometry x="500" y="80" width="60" height="20" as="geometry" />
        </mxCell>
        <mxCell id="a65lAm7me5gKPuGQS8Rp-59" value="MemberID" style="rounded=1;whiteSpace=wrap;html=1;fillColor=#d5e8d4;strokeColor=#82b366;align=center;fontFamily=mono;" vertex="1" parent="1">
          <mxGeometry x="560" y="80" width="60" height="20" as="geometry" />
        </mxCell>
        <mxCell id="a65lAm7me5gKPuGQS8Rp-60" value="GuestID" style="rounded=1;whiteSpace=wrap;html=1;fillColor=#ffe6cc;strokeColor=#d79b00;align=center;fontFamily=mono;" vertex="1" parent="1">
          <mxGeometry x="620" y="80" width="60" height="20" as="geometry" />
        </mxCell>
        <mxCell id="a65lAm7me5gKPuGQS8Rp-63" value="0b⋯" style="text;html=1;align=right;verticalAlign=middle;whiteSpace=wrap;rounded=0;fontFamily=mono;" vertex="1" parent="1">
          <mxGeometry x="510" y="420" width="30" height="20" as="geometry" />
        </mxCell>
        <mxCell id="a65lAm7me5gKPuGQS8Rp-64" value="0" style="text;html=1;align=center;verticalAlign=middle;whiteSpace=wrap;rounded=0;fontFamily=mono;" vertex="1" parent="1">
          <mxGeometry x="540" y="420" width="8" height="20" as="geometry" />
        </mxCell>
        <mxCell id="a65lAm7me5gKPuGQS8Rp-65" value="0" style="text;html=1;align=center;verticalAlign=middle;whiteSpace=wrap;rounded=0;fontFamily=mono;" vertex="1" parent="1">
          <mxGeometry x="548" y="420" width="8" height="20" as="geometry" />
        </mxCell>
        <mxCell id="a65lAm7me5gKPuGQS8Rp-66" value="00" style="text;html=1;align=center;verticalAlign=middle;whiteSpace=wrap;rounded=0;fontFamily=mono;fillColor=none;strokeColor=none;" vertex="1" parent="1">
          <mxGeometry x="556" y="420" width="16" height="20" as="geometry" />
        </mxCell>
        <mxCell id="a65lAm7me5gKPuGQS8Rp-67" value="&lt;span style=&quot;text-align: right;&quot;&gt;⋯&lt;/span&gt;" style="text;html=1;align=center;verticalAlign=middle;whiteSpace=wrap;rounded=0;fontFamily=mono;" vertex="1" parent="1">
          <mxGeometry x="572" y="420" width="8" height="20" as="geometry" />
        </mxCell>
        <mxCell id="a65lAm7me5gKPuGQS8Rp-68" value="0b⋯" style="text;html=1;align=right;verticalAlign=middle;whiteSpace=wrap;rounded=0;fontFamily=mono;" vertex="1" parent="1">
          <mxGeometry x="510" y="400" width="30" height="20" as="geometry" />
        </mxCell>
        <mxCell id="a65lAm7me5gKPuGQS8Rp-69" value="0" style="text;html=1;align=center;verticalAlign=middle;whiteSpace=wrap;rounded=0;fontFamily=mono;" vertex="1" parent="1">
          <mxGeometry x="540" y="400" width="8" height="20" as="geometry" />
        </mxCell>
        <mxCell id="a65lAm7me5gKPuGQS8Rp-70" value="0" style="text;html=1;align=center;verticalAlign=middle;whiteSpace=wrap;rounded=0;fontFamily=mono;" vertex="1" parent="1">
          <mxGeometry x="548" y="400" width="8" height="20" as="geometry" />
        </mxCell>
        <mxCell id="a65lAm7me5gKPuGQS8Rp-71" value="01" style="text;html=1;align=center;verticalAlign=middle;whiteSpace=wrap;rounded=0;fontFamily=mono;fillColor=none;strokeColor=none;" vertex="1" parent="1">
          <mxGeometry x="556" y="400" width="16" height="20" as="geometry" />
        </mxCell>
        <mxCell id="a65lAm7me5gKPuGQS8Rp-72" value="&lt;span style=&quot;text-align: right;&quot;&gt;⋯&lt;/span&gt;" style="text;html=1;align=center;verticalAlign=middle;whiteSpace=wrap;rounded=0;fontFamily=mono;" vertex="1" parent="1">
          <mxGeometry x="572" y="400" width="8" height="20" as="geometry" />
        </mxCell>
        <mxCell id="a65lAm7me5gKPuGQS8Rp-73" value="0b⋯" style="text;html=1;align=right;verticalAlign=middle;whiteSpace=wrap;rounded=0;fontFamily=mono;" vertex="1" parent="1">
          <mxGeometry x="510" y="380" width="30" height="20" as="geometry" />
        </mxCell>
        <mxCell id="a65lAm7me5gKPuGQS8Rp-74" value="0" style="text;html=1;align=center;verticalAlign=middle;whiteSpace=wrap;rounded=0;fontFamily=mono;" vertex="1" parent="1">
          <mxGeometry x="540" y="380" width="8" height="20" as="geometry" />
        </mxCell>
        <mxCell id="a65lAm7me5gKPuGQS8Rp-75" value="0" style="text;html=1;align=center;verticalAlign=middle;whiteSpace=wrap;rounded=0;fontFamily=mono;" vertex="1" parent="1">
          <mxGeometry x="548" y="380" width="8" height="20" as="geometry" />
        </mxCell>
        <mxCell id="a65lAm7me5gKPuGQS8Rp-76" value="10" style="text;html=1;align=center;verticalAlign=middle;whiteSpace=wrap;rounded=0;fontFamily=mono;fillColor=none;strokeColor=none;" vertex="1" parent="1">
          <mxGeometry x="556" y="380" width="16" height="20" as="geometry" />
        </mxCell>
        <mxCell id="a65lAm7me5gKPuGQS8Rp-77" value="&lt;span style=&quot;text-align: right;&quot;&gt;⋯&lt;/span&gt;" style="text;html=1;align=center;verticalAlign=middle;whiteSpace=wrap;rounded=0;fontFamily=mono;" vertex="1" parent="1">
          <mxGeometry x="572" y="380" width="8" height="20" as="geometry" />
        </mxCell>
        <mxCell id="a65lAm7me5gKPuGQS8Rp-78" value="0b⋯" style="text;html=1;align=right;verticalAlign=middle;whiteSpace=wrap;rounded=0;fontFamily=mono;" vertex="1" parent="1">
          <mxGeometry x="510" y="340" width="30" height="20" as="geometry" />
        </mxCell>
        <mxCell id="a65lAm7me5gKPuGQS8Rp-79" value="0" style="text;html=1;align=center;verticalAlign=middle;whiteSpace=wrap;rounded=0;fontFamily=mono;" vertex="1" parent="1">
          <mxGeometry x="540" y="340" width="8" height="20" as="geometry" />
        </mxCell>
        <mxCell id="a65lAm7me5gKPuGQS8Rp-80" value="1" style="text;html=1;align=center;verticalAlign=middle;whiteSpace=wrap;rounded=0;fontFamily=mono;" vertex="1" parent="1">
          <mxGeometry x="548" y="340" width="8" height="20" as="geometry" />
        </mxCell>
        <mxCell id="a65lAm7me5gKPuGQS8Rp-81" value="00" style="text;html=1;align=center;verticalAlign=middle;whiteSpace=wrap;rounded=0;fontFamily=mono;fillColor=none;strokeColor=none;" vertex="1" parent="1">
          <mxGeometry x="556" y="340" width="16" height="20" as="geometry" />
        </mxCell>
        <mxCell id="a65lAm7me5gKPuGQS8Rp-82" value="&lt;span style=&quot;text-align: right;&quot;&gt;⋯&lt;/span&gt;" style="text;html=1;align=center;verticalAlign=middle;whiteSpace=wrap;rounded=0;fontFamily=mono;" vertex="1" parent="1">
          <mxGeometry x="572" y="340" width="8" height="20" as="geometry" />
        </mxCell>
        <mxCell id="a65lAm7me5gKPuGQS8Rp-83" value="0b⋯" style="text;html=1;align=right;verticalAlign=middle;whiteSpace=wrap;rounded=0;fontFamily=mono;" vertex="1" parent="1">
          <mxGeometry x="510" y="320" width="30" height="20" as="geometry" />
        </mxCell>
        <mxCell id="a65lAm7me5gKPuGQS8Rp-84" value="0" style="text;html=1;align=center;verticalAlign=middle;whiteSpace=wrap;rounded=0;fontFamily=mono;" vertex="1" parent="1">
          <mxGeometry x="540" y="320" width="8" height="20" as="geometry" />
        </mxCell>
        <mxCell id="a65lAm7me5gKPuGQS8Rp-85" value="1" style="text;html=1;align=center;verticalAlign=middle;whiteSpace=wrap;rounded=0;fontFamily=mono;" vertex="1" parent="1">
          <mxGeometry x="548" y="320" width="8" height="20" as="geometry" />
        </mxCell>
        <mxCell id="a65lAm7me5gKPuGQS8Rp-86" value="01" style="text;html=1;align=center;verticalAlign=middle;whiteSpace=wrap;rounded=0;fontFamily=mono;fillColor=none;strokeColor=none;" vertex="1" parent="1">
          <mxGeometry x="556" y="320" width="16" height="20" as="geometry" />
        </mxCell>
        <mxCell id="a65lAm7me5gKPuGQS8Rp-87" value="&lt;span style=&quot;text-align: right;&quot;&gt;⋯&lt;/span&gt;" style="text;html=1;align=center;verticalAlign=middle;whiteSpace=wrap;rounded=0;fontFamily=mono;" vertex="1" parent="1">
          <mxGeometry x="572" y="320" width="8" height="20" as="geometry" />
        </mxCell>
        <mxCell id="a65lAm7me5gKPuGQS8Rp-88" value="0b⋯" style="text;html=1;align=right;verticalAlign=middle;whiteSpace=wrap;rounded=0;fontFamily=mono;" vertex="1" parent="1">
          <mxGeometry x="510" y="300" width="30" height="20" as="geometry" />
        </mxCell>
        <mxCell id="a65lAm7me5gKPuGQS8Rp-89" value="0" style="text;html=1;align=center;verticalAlign=middle;whiteSpace=wrap;rounded=0;fontFamily=mono;" vertex="1" parent="1">
          <mxGeometry x="540" y="300" width="8" height="20" as="geometry" />
        </mxCell>
        <mxCell id="a65lAm7me5gKPuGQS8Rp-90" value="1" style="text;html=1;align=center;verticalAlign=middle;whiteSpace=wrap;rounded=0;fontFamily=mono;" vertex="1" parent="1">
          <mxGeometry x="548" y="300" width="8" height="20" as="geometry" />
        </mxCell>
        <mxCell id="a65lAm7me5gKPuGQS8Rp-91" value="10" style="text;html=1;align=center;verticalAlign=middle;whiteSpace=wrap;rounded=0;fontFamily=mono;fillColor=none;strokeColor=none;" vertex="1" parent="1">
          <mxGeometry x="556" y="300" width="16" height="20" as="geometry" />
        </mxCell>
        <mxCell id="a65lAm7me5gKPuGQS8Rp-92" value="&lt;span style=&quot;text-align: right;&quot;&gt;⋯&lt;/span&gt;" style="text;html=1;align=center;verticalAlign=middle;whiteSpace=wrap;rounded=0;fontFamily=mono;" vertex="1" parent="1">
          <mxGeometry x="572" y="300" width="8" height="20" as="geometry" />
        </mxCell>
        <mxCell id="a65lAm7me5gKPuGQS8Rp-93" value="0b⋯" style="text;html=1;align=right;verticalAlign=middle;whiteSpace=wrap;rounded=0;fontFamily=mono;" vertex="1" parent="1">
          <mxGeometry x="510" y="180" width="30" height="20" as="geometry" />
        </mxCell>
        <mxCell id="a65lAm7me5gKPuGQS8Rp-94" value="1" style="text;html=1;align=center;verticalAlign=middle;whiteSpace=wrap;rounded=0;fontFamily=mono;" vertex="1" parent="1">
          <mxGeometry x="540" y="180" width="8" height="20" as="geometry" />
        </mxCell>
        <mxCell id="a65lAm7me5gKPuGQS8Rp-95" value="1" style="text;html=1;align=center;verticalAlign=middle;whiteSpace=wrap;rounded=0;fontFamily=mono;" vertex="1" parent="1">
          <mxGeometry x="548" y="180" width="8" height="20" as="geometry" />
        </mxCell>
        <mxCell id="a65lAm7me5gKPuGQS8Rp-96" value="00" style="text;html=1;align=center;verticalAlign=middle;whiteSpace=wrap;rounded=0;fontFamily=mono;fillColor=none;strokeColor=none;" vertex="1" parent="1">
          <mxGeometry x="556" y="180" width="16" height="20" as="geometry" />
        </mxCell>
        <mxCell id="a65lAm7me5gKPuGQS8Rp-97" value="&lt;span style=&quot;text-align: right;&quot;&gt;⋯&lt;/span&gt;" style="text;html=1;align=center;verticalAlign=middle;whiteSpace=wrap;rounded=0;fontFamily=mono;" vertex="1" parent="1">
          <mxGeometry x="572" y="180" width="8" height="20" as="geometry" />
        </mxCell>
        <mxCell id="a65lAm7me5gKPuGQS8Rp-98" value="0b⋯" style="text;html=1;align=right;verticalAlign=middle;whiteSpace=wrap;rounded=0;fontFamily=mono;" vertex="1" parent="1">
          <mxGeometry x="510" y="160" width="30" height="20" as="geometry" />
        </mxCell>
        <mxCell id="a65lAm7me5gKPuGQS8Rp-99" value="1" style="text;html=1;align=center;verticalAlign=middle;whiteSpace=wrap;rounded=0;fontFamily=mono;" vertex="1" parent="1">
          <mxGeometry x="540" y="160" width="8" height="20" as="geometry" />
        </mxCell>
        <mxCell id="a65lAm7me5gKPuGQS8Rp-100" value="1" style="text;html=1;align=center;verticalAlign=middle;whiteSpace=wrap;rounded=0;fontFamily=mono;" vertex="1" parent="1">
          <mxGeometry x="548" y="160" width="8" height="20" as="geometry" />
        </mxCell>
        <mxCell id="a65lAm7me5gKPuGQS8Rp-101" value="01" style="text;html=1;align=center;verticalAlign=middle;whiteSpace=wrap;rounded=0;fontFamily=mono;fillColor=none;strokeColor=none;" vertex="1" parent="1">
          <mxGeometry x="556" y="160" width="16" height="20" as="geometry" />
        </mxCell>
        <mxCell id="a65lAm7me5gKPuGQS8Rp-102" value="&lt;span style=&quot;text-align: right;&quot;&gt;⋯&lt;/span&gt;" style="text;html=1;align=center;verticalAlign=middle;whiteSpace=wrap;rounded=0;fontFamily=mono;" vertex="1" parent="1">
          <mxGeometry x="572" y="160" width="8" height="20" as="geometry" />
        </mxCell>
        <mxCell id="a65lAm7me5gKPuGQS8Rp-103" value="0b⋯" style="text;html=1;align=right;verticalAlign=middle;whiteSpace=wrap;rounded=0;fontFamily=mono;" vertex="1" parent="1">
          <mxGeometry x="510" y="140" width="30" height="20" as="geometry" />
        </mxCell>
        <mxCell id="a65lAm7me5gKPuGQS8Rp-104" value="1" style="text;html=1;align=center;verticalAlign=middle;whiteSpace=wrap;rounded=0;fontFamily=mono;" vertex="1" parent="1">
          <mxGeometry x="540" y="140" width="8" height="20" as="geometry" />
        </mxCell>
        <mxCell id="a65lAm7me5gKPuGQS8Rp-105" value="1" style="text;html=1;align=center;verticalAlign=middle;whiteSpace=wrap;rounded=0;fontFamily=mono;fillColor=none;strokeColor=none;" vertex="1" parent="1">
          <mxGeometry x="548" y="140" width="8" height="20" as="geometry" />
        </mxCell>
        <mxCell id="a65lAm7me5gKPuGQS8Rp-106" value="10" style="text;html=1;align=center;verticalAlign=middle;whiteSpace=wrap;rounded=0;fontFamily=mono;fillColor=none;strokeColor=none;" vertex="1" parent="1">
          <mxGeometry x="556" y="140" width="16" height="20" as="geometry" />
        </mxCell>
        <mxCell id="a65lAm7me5gKPuGQS8Rp-107" value="&lt;span style=&quot;text-align: right;&quot;&gt;⋯&lt;/span&gt;" style="text;html=1;align=center;verticalAlign=middle;whiteSpace=wrap;rounded=0;fontFamily=mono;" vertex="1" parent="1">
          <mxGeometry x="572" y="140" width="8" height="20" as="geometry" />
        </mxCell>
        <mxCell id="a65lAm7me5gKPuGQS8Rp-108" value="0b⋯" style="text;html=1;align=right;verticalAlign=middle;whiteSpace=wrap;rounded=0;fontFamily=mono;" vertex="1" parent="1">
          <mxGeometry x="510" y="260" width="30" height="20" as="geometry" />
        </mxCell>
        <mxCell id="a65lAm7me5gKPuGQS8Rp-109" value="1" style="text;html=1;align=center;verticalAlign=middle;whiteSpace=wrap;rounded=0;fontFamily=mono;" vertex="1" parent="1">
          <mxGeometry x="540" y="260" width="8" height="20" as="geometry" />
        </mxCell>
        <mxCell id="a65lAm7me5gKPuGQS8Rp-110" value="0" style="text;html=1;align=center;verticalAlign=middle;whiteSpace=wrap;rounded=0;fontFamily=mono;" vertex="1" parent="1">
          <mxGeometry x="548" y="260" width="8" height="20" as="geometry" />
        </mxCell>
        <mxCell id="a65lAm7me5gKPuGQS8Rp-111" value="00" style="text;html=1;align=center;verticalAlign=middle;whiteSpace=wrap;rounded=0;fontFamily=mono;fillColor=none;strokeColor=none;" vertex="1" parent="1">
          <mxGeometry x="556" y="260" width="16" height="20" as="geometry" />
        </mxCell>
        <mxCell id="a65lAm7me5gKPuGQS8Rp-112" value="&lt;span style=&quot;text-align: right;&quot;&gt;⋯&lt;/span&gt;" style="text;html=1;align=center;verticalAlign=middle;whiteSpace=wrap;rounded=0;fontFamily=mono;" vertex="1" parent="1">
          <mxGeometry x="572" y="260" width="8" height="20" as="geometry" />
        </mxCell>
        <mxCell id="a65lAm7me5gKPuGQS8Rp-113" value="0b⋯" style="text;html=1;align=right;verticalAlign=middle;whiteSpace=wrap;rounded=0;fontFamily=mono;" vertex="1" parent="1">
          <mxGeometry x="510" y="240" width="30" height="20" as="geometry" />
        </mxCell>
        <mxCell id="a65lAm7me5gKPuGQS8Rp-114" value="1" style="text;html=1;align=center;verticalAlign=middle;whiteSpace=wrap;rounded=0;fontFamily=mono;" vertex="1" parent="1">
          <mxGeometry x="540" y="240" width="8" height="20" as="geometry" />
        </mxCell>
        <mxCell id="a65lAm7me5gKPuGQS8Rp-115" value="0" style="text;html=1;align=center;verticalAlign=middle;whiteSpace=wrap;rounded=0;fontFamily=mono;" vertex="1" parent="1">
          <mxGeometry x="548" y="240" width="8" height="20" as="geometry" />
        </mxCell>
        <mxCell id="a65lAm7me5gKPuGQS8Rp-116" value="01" style="text;html=1;align=center;verticalAlign=middle;whiteSpace=wrap;rounded=0;fontFamily=mono;fillColor=none;strokeColor=none;" vertex="1" parent="1">
          <mxGeometry x="556" y="240" width="16" height="20" as="geometry" />
        </mxCell>
        <mxCell id="a65lAm7me5gKPuGQS8Rp-117" value="&lt;span style=&quot;text-align: right;&quot;&gt;⋯&lt;/span&gt;" style="text;html=1;align=center;verticalAlign=middle;whiteSpace=wrap;rounded=0;fontFamily=mono;" vertex="1" parent="1">
          <mxGeometry x="572" y="240" width="8" height="20" as="geometry" />
        </mxCell>
        <mxCell id="a65lAm7me5gKPuGQS8Rp-118" value="0b⋯" style="text;html=1;align=right;verticalAlign=middle;whiteSpace=wrap;rounded=0;fontFamily=mono;" vertex="1" parent="1">
          <mxGeometry x="510" y="220" width="30" height="20" as="geometry" />
        </mxCell>
        <mxCell id="a65lAm7me5gKPuGQS8Rp-119" value="1" style="text;html=1;align=center;verticalAlign=middle;whiteSpace=wrap;rounded=0;fontFamily=mono;" vertex="1" parent="1">
          <mxGeometry x="540" y="220" width="8" height="20" as="geometry" />
        </mxCell>
        <mxCell id="a65lAm7me5gKPuGQS8Rp-120" value="0" style="text;html=1;align=center;verticalAlign=middle;whiteSpace=wrap;rounded=0;fontFamily=mono;" vertex="1" parent="1">
          <mxGeometry x="548" y="220" width="8" height="20" as="geometry" />
        </mxCell>
        <mxCell id="a65lAm7me5gKPuGQS8Rp-121" value="10" style="text;html=1;align=center;verticalAlign=middle;whiteSpace=wrap;rounded=0;fontFamily=mono;fillColor=none;strokeColor=none;" vertex="1" parent="1">
          <mxGeometry x="556" y="220" width="16" height="20" as="geometry" />
        </mxCell>
        <mxCell id="a65lAm7me5gKPuGQS8Rp-122" value="&lt;span style=&quot;text-align: right;&quot;&gt;⋯&lt;/span&gt;" style="text;html=1;align=center;verticalAlign=middle;whiteSpace=wrap;rounded=0;fontFamily=mono;" vertex="1" parent="1">
          <mxGeometry x="572" y="220" width="8" height="20" as="geometry" />
        </mxCell>
        <mxCell id="a65lAm7me5gKPuGQS8Rp-126" value="" style="verticalLabelPosition=bottom;verticalAlign=top;html=1;shape=mxgraph.basic.polygon;polyCoords=[[0.52,0],[1,0],[0.13,0.5],[0.13,0.74],[0.13,1],[0,1],[0,0.75],[0,0.25]];polyline=0;fillColor=#ffe6cc;strokeColor=none;" vertex="1" parent="1">
          <mxGeometry x="556" y="100" width="124" height="40" as="geometry" />
        </mxCell>
        <mxCell id="a65lAm7me5gKPuGQS8Rp-136" value="0b⋯" style="text;html=1;align=right;verticalAlign=middle;whiteSpace=wrap;rounded=0;fontFamily=mono;" vertex="1" parent="1">
          <mxGeometry x="266" y="420" width="30" height="20" as="geometry" />
        </mxCell>
        <mxCell id="a65lAm7me5gKPuGQS8Rp-137" value="0" style="text;html=1;align=center;verticalAlign=middle;whiteSpace=wrap;rounded=0;fontFamily=mono;" vertex="1" parent="1">
          <mxGeometry x="296" y="420" width="8" height="20" as="geometry" />
        </mxCell>
        <mxCell id="a65lAm7me5gKPuGQS8Rp-138" value="0" style="text;html=1;align=center;verticalAlign=middle;whiteSpace=wrap;rounded=0;fontFamily=mono;" vertex="1" parent="1">
          <mxGeometry x="304" y="420" width="8" height="20" as="geometry" />
        </mxCell>
        <mxCell id="a65lAm7me5gKPuGQS8Rp-140" value="&lt;span style=&quot;text-align: right;&quot;&gt;⋯&lt;/span&gt;" style="text;html=1;align=center;verticalAlign=middle;whiteSpace=wrap;rounded=0;fontFamily=mono;" vertex="1" parent="1">
          <mxGeometry x="312" y="420" width="8" height="20" as="geometry" />
        </mxCell>
        <mxCell id="a65lAm7me5gKPuGQS8Rp-141" value="0b⋯" style="text;html=1;align=right;verticalAlign=middle;whiteSpace=wrap;rounded=0;fontFamily=mono;" vertex="1" parent="1">
          <mxGeometry x="266" y="400" width="30" height="20" as="geometry" />
        </mxCell>
        <mxCell id="a65lAm7me5gKPuGQS8Rp-142" value="0" style="text;html=1;align=center;verticalAlign=middle;whiteSpace=wrap;rounded=0;fontFamily=mono;" vertex="1" parent="1">
          <mxGeometry x="296" y="400" width="8" height="20" as="geometry" />
        </mxCell>
        <mxCell id="a65lAm7me5gKPuGQS8Rp-143" value="1" style="text;html=1;align=center;verticalAlign=middle;whiteSpace=wrap;rounded=0;fontFamily=mono;" vertex="1" parent="1">
          <mxGeometry x="304" y="400" width="8" height="20" as="geometry" />
        </mxCell>
        <mxCell id="a65lAm7me5gKPuGQS8Rp-145" value="&lt;span style=&quot;text-align: right;&quot;&gt;⋯&lt;/span&gt;" style="text;html=1;align=center;verticalAlign=middle;whiteSpace=wrap;rounded=0;fontFamily=mono;" vertex="1" parent="1">
          <mxGeometry x="312" y="400" width="8" height="20" as="geometry" />
        </mxCell>
        <mxCell id="a65lAm7me5gKPuGQS8Rp-146" value="0b⋯" style="text;html=1;align=right;verticalAlign=middle;whiteSpace=wrap;rounded=0;fontFamily=mono;" vertex="1" parent="1">
          <mxGeometry x="266" y="380" width="30" height="20" as="geometry" />
        </mxCell>
        <mxCell id="a65lAm7me5gKPuGQS8Rp-147" value="1" style="text;html=1;align=center;verticalAlign=middle;whiteSpace=wrap;rounded=0;fontFamily=mono;" vertex="1" parent="1">
          <mxGeometry x="296" y="380" width="8" height="20" as="geometry" />
        </mxCell>
        <mxCell id="a65lAm7me5gKPuGQS8Rp-148" value="0" style="text;html=1;align=center;verticalAlign=middle;whiteSpace=wrap;rounded=0;fontFamily=mono;" vertex="1" parent="1">
          <mxGeometry x="304" y="380" width="8" height="20" as="geometry" />
        </mxCell>
        <mxCell id="a65lAm7me5gKPuGQS8Rp-150" value="&lt;span style=&quot;text-align: right;&quot;&gt;⋯&lt;/span&gt;" style="text;html=1;align=center;verticalAlign=middle;whiteSpace=wrap;rounded=0;fontFamily=mono;" vertex="1" parent="1">
          <mxGeometry x="312" y="380" width="8" height="20" as="geometry" />
        </mxCell>
        <mxCell id="a65lAm7me5gKPuGQS8Rp-196" value="0b⋯" style="text;html=1;align=right;verticalAlign=middle;whiteSpace=wrap;rounded=0;fontFamily=mono;" vertex="1" parent="1">
          <mxGeometry x="266" y="360" width="30" height="20" as="geometry" />
        </mxCell>
        <mxCell id="a65lAm7me5gKPuGQS8Rp-197" value="1" style="text;html=1;align=center;verticalAlign=middle;whiteSpace=wrap;rounded=0;fontFamily=mono;" vertex="1" parent="1">
          <mxGeometry x="296" y="360" width="8" height="20" as="geometry" />
        </mxCell>
        <mxCell id="a65lAm7me5gKPuGQS8Rp-198" value="1" style="text;html=1;align=center;verticalAlign=middle;whiteSpace=wrap;rounded=0;fontFamily=mono;" vertex="1" parent="1">
          <mxGeometry x="304" y="360" width="8" height="20" as="geometry" />
        </mxCell>
        <mxCell id="a65lAm7me5gKPuGQS8Rp-200" value="&lt;span style=&quot;text-align: right;&quot;&gt;⋯&lt;/span&gt;" style="text;html=1;align=center;verticalAlign=middle;whiteSpace=wrap;rounded=0;fontFamily=mono;" vertex="1" parent="1">
          <mxGeometry x="312" y="360" width="8" height="20" as="geometry" />
        </mxCell>
        <mxCell id="a65lAm7me5gKPuGQS8Rp-201" value="GroupID" style="rounded=1;whiteSpace=wrap;html=1;fillColor=#dae8fc;strokeColor=#6c8ebf;align=center;fontFamily=mono;" vertex="1" parent="1">
          <mxGeometry x="260" y="310" width="60" height="20" as="geometry" />
        </mxCell>
        <mxCell id="a65lAm7me5gKPuGQS8Rp-202" value="MemberID" style="rounded=1;whiteSpace=wrap;html=1;fillColor=#d5e8d4;strokeColor=#82b366;align=center;fontFamily=mono;" vertex="1" parent="1">
          <mxGeometry x="320" y="310" width="60" height="20" as="geometry" />
        </mxCell>
        <mxCell id="a65lAm7me5gKPuGQS8Rp-203" value="GuestID" style="rounded=1;whiteSpace=wrap;html=1;fillColor=#ffe6cc;strokeColor=#d79b00;align=center;fontFamily=mono;" vertex="1" parent="1">
          <mxGeometry x="380" y="310" width="60" height="20" as="geometry" />
        </mxCell>
        <mxCell id="a65lAm7me5gKPuGQS8Rp-211" value="" style="ellipse;whiteSpace=wrap;html=1;aspect=fixed;fillColor=#e1d5e7;strokeColor=#9673a6;fontStyle=1" vertex="1" parent="1">
          <mxGeometry x="265" y="437" width="10" height="10" as="geometry" />
        </mxCell>
        <mxCell id="a65lAm7me5gKPuGQS8Rp-213" value="&lt;span style=&quot;color: rgb(51, 51, 51);&quot;&gt;Base Addr for M IntFiles&lt;/span&gt;" style="text;html=1;align=center;verticalAlign=middle;whiteSpace=wrap;rounded=1;fontFamily=mono;fillColor=#e1d5e7;strokeColor=none;" vertex="1" parent="1">
          <mxGeometry x="290" y="442" width="190" height="16" as="geometry" />
        </mxCell>
        <mxCell id="a65lAm7me5gKPuGQS8Rp-217" value="" style="shape=cross;whiteSpace=wrap;html=1;size=0;fillColor=#e1d5e7;strokeColor=#9673a6;" vertex="1" parent="1">
          <mxGeometry x="267" y="439" width="6" height="6" as="geometry" />
        </mxCell>
        <mxCell id="a65lAm7me5gKPuGQS8Rp-218" value="" style="shape=cross;whiteSpace=wrap;html=1;size=0;fillColor=#e1d5e7;strokeColor=#9673a6;" vertex="1" parent="1">
          <mxGeometry x="512" y="439" width="6" height="6" as="geometry" />
        </mxCell>
      </root>
    </mxGraphModel>
  </diagram>
</mxfile>
